PathFileType	4	(X/Y/Z)	/Users/itak/Documents/Research/Walk-IL/dataset/trc/00277_00010.trc
DataRate	CameraRate	NumFrames	NumMarkers	Units	OrigDataRate	OrigDataStartFrame	OrigNumFrames
100.000000	100.000000	4	53	mm	100.000000	168	672
Frame#	Time	RPSI			LPSI			L3			STRN			T10			C7			CLAV			RBAK			LBAK			LSHO			LUPA			LAEL			LAOL			LWTS			LWPS			LFRA			LIFD			LHPS			LHTS			RSHO			RUPA			RAEL			RAOL			RWTS			RWPS			RFRA			RIFD			RHTS			RHPS			RBHD			LFHD			RFHD			LBHD			LHIP			RHIP			RASI			LASI			LKNE			LTHI			LANK			LTIP			LTOE			LMT1			LMT5			LHEE			RKNE			RTHI			RANK			RTIP			RTOE			RMT1			RMT5			RHEE			
		X1	Y1	Z1	X2	Y2	Z2	X3	Y3	Z3	X4	Y4	Z4	X5	Y5	Z5	X6	Y6	Z6	X7	Y7	Z7	X8	Y8	Z8	X9	Y9	Z9	X10	Y10	Z10	X11	Y11	Z11	X12	Y12	Z12	X13	Y13	Z13	X14	Y14	Z14	X15	Y15	Z15	X16	Y16	Z16	X17	Y17	Z17	X18	Y18	Z18	X19	Y19	Z19	X20	Y20	Z20	X21	Y21	Z21	X22	Y22	Z22	X23	Y23	Z23	X24	Y24	Z24	X25	Y25	Z25	X26	Y26	Z26	X27	Y27	Z27	X28	Y28	Z28	X29	Y29	Z29	X30	Y30	Z30	X31	Y31	Z31	X32	Y32	Z32	X33	Y33	Z33	X34	Y34	Z34	X35	Y35	Z35	X36	Y36	Z36	X37	Y37	Z37	X38	Y38	Z38	X39	Y39	Z39	X40	Y40	Z40	X41	Y41	Z41	X42	Y42	Z42	X43	Y43	Z43	X44	Y44	Z44	X45	Y45	Z45	X46	Y46	Z46	X47	Y47	Z47	X48	Y48	Z48	X49	Y49	Z49	X50	Y50	Z50	X51	Y51	Z51	X52	Y52	Z52	X53	Y53	Z53	

169	1.68	830.2835693359375	946.4639892578125	954.1256103515625	702.33154296875	940.6536865234375	834.4552612304688	759.748046875	1013.17578125	877.158935546875	933.6552124023438	1191.8759765625	704.068115234375	740.064453125	1130.576904296875	883.27001953125	761.0445556640625	1376.006591796875	837.9150390625	884.1806030273438	1292.303833007812	742.3352661132812	772.0233154296875	1240.5615234375	932.3085327148438	678.8110961914062	1337.985961914062	772.0242309570312	714.2724609375	1343.791015625	675.01416015625	644.8480224609375	1226.089721679688	635.0826416015625	643.7186889648438	1023.276611328125	615.1826782226562	630.8427124023438	1006.339172363281	700.1730346679688	769.9246215820312	830.53271484375	582.4019775390625	708.2741088867188	808.3305053710938	551.9083251953125	663.4872436523438	925.4952392578125	591.4409790039062	813.8106689453125	651.7164306640625	551.3162231445312	732.58642578125	724.1242065429688	538.5591430664062	795.9517822265625	742.7005004882812	536.3292236328125	916.847900390625	1356.141357421875	914.9778442382812	952.096435546875	1303.1494140625	974.5980834960938	941.8013916015625	1050.545532226562	1063.05126953125	866.90185546875	1039.470458984375	1002.186950683594	969.392333984375	805.7040405273438	1025.651733398438	967.8839721679688	822.5460815429688	1108.702392578125	959.364501953125	983.357421875	1077.02783203125	940.6141967773438	628.1145629882812	1068.10888671875	983.7510986328125	689.7083129882812	1056.60107421875	966.9790649414062	708.7909545898438	1121.819458007812	862.1246948242188	1548.859741210938	837.0504760742188	833.6057739257812	1537.255615234375	626.079345703125	915.7650146484375	1547.359375	669.0942993164062	732.6106567382812	1521.75634765625	769.87646484375	677.7366333007812	887.863037109375	720.771240234375	977.0870361328125	905.9024047851562	946.8385620117188	998.612548828125	910.505615234375	810.5220947265625	803.1900634765625	894.2972412109375	645.8344116210938	697.8399047851562	439.3535766601562	802.4201049804688	695.4102172851562	574.2357788085938	751.33740234375	529.7703857421875	73.78306579589844	1013.44091796875	609.61474609375	246.160888671875	903.7922973632812	739.015625	32.06374359130859	1002.005310058594	685.1351928710938	32.86576843261719	1060.147827148438	637.1261596679688	43.55233764648438	961.0721435546875	509.1391906738281	92.08935546875	1082.942504882812	1098.219970703125	483.5111083984375	772.3618774414062	1057.667236328125	720.9201049804688	863.1548461914062	1176.543212890625	31.62857055664062	731.80615234375	1128.65869140625	367.9200134277344	730.229736328125	1174.880859375	82.00871276855469	541.4990234375	1121.109252929688	63.79533767700195	579.0653076171875	1222.0380859375	38.45846939086914	637.11376953125	1112.179443359375	23.88971900939941	765.5891723632812	
170	1.69	839.490234375	947.6064453125	945.9534301757812	711.3408813476562	940.3111572265625	826.5537109375	769.2782592773438	1012.74365234375	868.933349609375	941.5296020507812	1192.368041992188	695.7601318359375	749.4963989257812	1130.083374023438	876.0476684570312	769.4110107421875	1375.762817382812	831.4692993164062	892.0511474609375	1292.568115234375	734.662353515625	781.350830078125	1239.963134765625	925.3359375	686.7207641601562	1337.642700195312	766.1327514648438	721.28466796875	1343.623901367188	668.7699584960938	651.4593505859375	1225.695678710938	629.7994995117188	649.4111328125	1022.40673828125	610.990478515625	638.2347412109375	1006.401611328125	696.3368530273438	770.1807861328125	824.9591674804688	580.0735473632812	707.319580078125	804.1041259765625	551.2578125	666.6998291015625	923.229248046875	588.7199096679688	807.51171875	644.1803588867188	552.0678100585938	728.576416015625	718.9951782226562	539.4088745117188	792.3148193359375	735.3011474609375	535.5689697265625	925.8351440429688	1355.829833984375	907.3944091796875	961.6024780273438	1302.482543945312	966.4857177734375	952.354736328125	1049.197143554688	1053.38818359375	876.9695434570312	1038.52197265625	993.004638671875	978.7158813476562	804.3173828125	1015.734741210938	978.0980834960938	821.4090576171875	1098.75634765625	969.9619140625	982.1063232421875	1067.098510742188	948.8505859375	627.0106811523438	1059.159545898438	992.384033203125	688.2542114257812	1046.903564453125	976.5117797851562	707.72705078125	1112.248291015625	870.5804443359375	1549.033081054688	829.989013671875	839.9854736328125	1537.580688476562	619.2271118164062	922.5155029296875	1547.596801757812	661.4574584960938	740.3704833984375	1522.003173828125	764.099853515625	686.1768798828125	886.9552001953125	713.164306640625	986.55615234375	907.8466796875	938.1110229492188	1007.459411621094	911.51953125	801.7272338867188	811.6083984375	893.7421875	637.8714599609375	706.502197265625	438.4724426269531	794.9163818359375	704.3767700195312	573.3488159179688	744.0242309570312	531.7826538085938	78.56919097900391	1011.28369140625	615.0023803710938	247.9908599853516	898.8011474609375	739.0719604492188	32.05741500854492	1001.867980957031	685.8421020507812	34.46173477172852	1059.434936523438	638.2029418945312	43.64005279541016	960.0668334960938	511.7557983398438	99.51485443115234	1080.121215820312	1105.935791015625	484.7925109863281	761.169921875	1066.533081054688	722.4797973632812	852.40185546875	1177.945190429688	30.72309303283691	730.4269409179688	1134.466186523438	367.8899841308594	720.6515502929688	1174.833618164062	75.31414794921875	538.5162963867188	1121.146240234375	59.31250762939453	577.1005249023438	1222.197021484375	33.77151870727539	634.8246459960938	1113.636474609375	25.23040008544922	764.9722900390625	
171	1.7	848.4901123046875	949.1319580078125	937.5827026367188	720.2112426757812	940.1793212890625	818.4038696289062	778.7615356445312	1012.647399902344	860.4472045898438	949.4067993164062	1193.291015625	687.28857421875	758.8339233398438	1130.01416015625	868.673095703125	777.7969360351562	1375.8984375	824.8908081054688	899.8884887695312	1293.240966796875	726.8713989257812	790.6939086914062	1239.760864257812	918.2037963867188	694.645751953125	1337.707275390625	760.1023559570312	728.3156127929688	1343.863037109375	662.402099609375	658.101806640625	1225.7236328125	624.3745727539062	655.1917724609375	1022.059265136719	606.7564697265625	645.8170166015625	1006.887451171875	692.4042358398438	770.1657104492188	819.8670654296875	578.0079345703125	706.1276245117188	800.5031127929688	550.8890380859375	669.8381958007812	921.5272216796875	586.0626220703125	800.5158081054688	637.29736328125	553.4346923828125	724.1467895507812	714.6117553710938	540.7269287109375	788.174560546875	728.4456176757812	535.2949829101562	934.8137817382812	1355.912719726562	899.6563720703125	971.1154174804688	1302.220336914062	958.2061767578125	963.0714111328125	1048.240112304688	1043.476440429688	887.1732788085938	1037.954345703125	983.625	988.380126953125	803.353271484375	1005.416320800781	988.6823120117188	820.6427001953125	1088.409545898438	980.7723388671875	981.2422485351562	1056.870239257812	957.5104370117188	626.299072265625	1049.71875	1001.419921875	687.2117309570312	1036.732299804688	986.4540405273438	707.0199584960938	1102.216918945312	879.0303344726562	1549.572631835938	822.8171997070312	846.335205078125	1538.283325195312	612.2695922851562	929.2111206054688	1548.2265625	653.7249755859375	748.106689453125	1522.62548828125	758.2327270507812	694.5172119140625	886.28662109375	705.3305053710938	995.88720703125	910.3445434570312	929.1668701171875	1016.242858886719	913.0511474609375	792.73681640625	819.9822387695312	893.5067749023438	629.8577880859375	715.7987670898438	437.4739685058594	786.5357055664062	713.7644653320312	572.45458984375	736.1129150390625	534.3241577148438	83.94098663330078	1008.838195800781	620.8782958984375	250.0629425048828	893.2047729492188	739.1135864257812	31.99479293823242	1001.733032226562	686.7816162109375	36.2524528503418	1058.61767578125	639.4509887695312	43.77558898925781	958.9661865234375	515.2608642578125	107.7818450927734	1076.888305664062	1113.574340820312	486.1965942382812	750.31396484375	1075.350341796875	724.7479858398438	841.3785400390625	1179.244384765625	30.02644348144531	729.4574584960938	1140.101928710938	367.9822998046875	711.5228881835938	1175.28466796875	69.58722686767578	536.1673583984375	1121.619018554688	55.72062301635742	575.607421875	1222.62548828125	29.86103057861328	633.2619018554688	1114.9833984375	26.54443359375	764.5321044921875	
172	1.71	857.357177734375	950.935791015625	929.0560302734375	728.9217529296875	940.2572021484375	810.1256713867188	788.125244140625	1012.898376464844	851.8319702148438	957.2575073242188	1194.601928710938	678.6513671875	768.0330200195312	1130.361572265625	861.1746826171875	786.2005615234375	1376.39990234375	818.1749267578125	907.6776123046875	1294.287841796875	718.9584350585938	800.0479736328125	1239.948364257812	910.9127197265625	702.572509765625	1338.184692382812	753.9386596679688	735.3615112304688	1344.513549804688	655.9160766601562	664.765380859375	1226.209350585938	618.7929077148438	661.0183715820312	1022.265991210938	602.4843139648438	653.4970703125	1007.845886230469	688.375	769.9164428710938	815.3674926757812	576.2053833007812	704.7561645507812	797.6426391601562	550.76123046875	672.9149169921875	920.4874877929688	583.454345703125	792.8758544921875	631.2275390625	555.4323120117188	719.38525390625	711.1046752929688	542.4716186523438	783.6202392578125	722.2792358398438	535.5234375	943.7783203125	1356.372924804688	891.737548828125	980.6278076171875	1302.36083984375	949.7395629882812	973.9278564453125	1047.697265625	1033.343627929688	897.492431640625	1037.781616210938	974.0906982421875	998.3826904296875	802.8341674804688	994.6881713867188	999.6492919921875	820.2551879882812	1077.656005859375	991.7742309570312	980.781982421875	1046.362670898438	966.6485595703125	625.9920654296875	1039.745361328125	1010.887268066406	686.598876953125	1026.056030273438	996.8433837890625	706.6734619140625	1091.698364257812	887.46240234375	1550.433471679688	815.541015625	852.6414184570312	1539.347900390625	605.2080078125	935.8451538085938	1549.232177734375	645.9076538085938	755.8248291015625	1523.585327148438	752.2803955078125	702.7189331054688	885.8822631835938	697.3751220703125	1005.112487792969	913.2251586914062	920.0191040039062	1024.943725585938	915.0355224609375	783.5487670898438	828.2192993164062	893.6127319335938	621.85302734375	725.6704711914062	436.3302917480469	777.1709594726562	723.4829711914062	571.550537109375	727.5653076171875	537.5133056640625	89.91593933105469	1006.065063476562	627.236083984375	252.3936004638672	886.9576416015625	739.1500854492188	31.86040687561035	1001.596313476562	688.0192260742188	38.25004196166992	1057.670288085938	640.89404296875	43.99808883666992	957.76708984375	519.8469848632812	116.8894577026367	1073.17333984375	1121.080200195312	487.5474853515625	739.9874267578125	1084.136352539062	727.568115234375	830.214111328125	1180.453247070312	29.45523643493652	728.8231811523438	1145.581665039062	368.0491638183594	702.9979248046875	1176.217163085938	64.812255859375	534.364501953125	1122.519409179688	52.98714828491211	574.5035400390625	1223.322021484375	26.67851638793945	632.310791015625	1116.236450195312	27.73268508911133	764.2271118164062	
